<svg width="800" height="600" viewBox="0 0 800 600" fill="none" xmlns="http://www.w3.org/2000/svg" role="img" aria-label="Flight illustration">
  <defs>
    <linearGradient id="g1" x1="0" y1="0" x2="0" y2="1">
      <stop offset="0%" stop-color="#6AA9FF" stop-opacity="0.18"/>
      <stop offset="100%" stop-color="#8EC5FF" stop-opacity="0.05"/>
    </linearGradient>
    <linearGradient id="planeStroke" x1="0" y1="0" x2="1" y2="1">
      <stop offset="0%" stop-color="#2B6CB0"/>
      <stop offset="100%" stop-color="#3182CE"/>
    </linearGradient>
    <filter id="shadow" x="-50%" y="-50%" width="200%" height="200%" color-interpolation-filters="sRGB">
      <feDropShadow dx="0" dy="8" stdDeviation="12" flood-color="#1E3A8A" flood-opacity="0.12"/>
    </filter>
  </defs>

  <!-- Soft sky shapes -->
  <g opacity="0.7">
    <ellipse cx="640" cy="140" rx="180" ry="70" fill="url(#g1)"/>
    <ellipse cx="520" cy="80" rx="120" ry="46" fill="url(#g1)"/>
    <ellipse cx="700" cy="260" rx="140" ry="54" fill="url(#g1)"/>
    <ellipse cx="610" cy="360" rx="170" ry="64" fill="url(#g1)"/>
  </g>

  <!-- Flight path dashed curve -->
  <path d="M80 500 C 220 420, 380 420, 520 360 C 650 305, 690 240, 740 180" stroke="#60A5FA" stroke-opacity="0.5" stroke-width="3" stroke-linecap="round" stroke-dasharray="6 10" fill="none"/>

  <!-- Airplane -->
  <g filter="url(#shadow)">
    <g transform="translate(560 220) rotate(-18)">
      <!-- body -->
      <path d="M0 16 C 54 10, 138 6, 210 4 C 224 4, 236 14, 236 26 C 236 38, 224 48, 210 48 C 138 46, 54 42, 0 36 C -4 32, -4 20, 0 16 Z" fill="#E6F0FF" stroke="url(#planeStroke)" stroke-width="2"/>
      <!-- cockpit -->
      <path d="M10 18 C 26 18, 34 32, 10 34" fill="#93C5FD"/>
      <!-- wings -->
      <path d="M92 10 L150 -12 C160 -16 170 -8 168 2 L154 28 L92 22 Z" fill="#DBEAFE" stroke="#93C5FD" stroke-width="1.5"/>
      <path d="M96 42 L152 66 C162 70 170 62 168 52 L156 28 L96 30 Z" fill="#DBEAFE" stroke="#93C5FD" stroke-width="1.5"/>
      <!-- tail -->
      <path d="M214 6 L234 0 L232 18 L214 18 Z" fill="#DBEAFE" stroke="#93C5FD" stroke-width="1.5"/>
      <!-- windows -->
      <g fill="#60A5FA">
        <circle cx="58" cy="28" r="2.4"/>
        <circle cx="72" cy="28" r="2.4"/>
        <circle cx="86" cy="28" r="2.4"/>
        <circle cx="100" cy="28" r="2.4"/>
        <circle cx="114" cy="28" r="2.4"/>
        <circle cx="128" cy="28" r="2.4"/>
        <circle cx="142" cy="28" r="2.4"/>
      </g>
    </g>
  </g>

  <!-- Small clouds -->
  <g fill="#F1F5FF">
    <path d="M120 420c18-28 66-28 84 0 22-10 46 6 44 26H110c-2-20 22-36 44-26z"/>
    <path d="M260 460c14-22 52-22 66 0 18-8 36 4 34 20H246c-2-16 16-28 34-20z"/>
  </g>
</svg>
